<?xml version="1.0" encoding="UTF-8"?>
<svg width="192px" height="18px" viewBox="0 0 192 18" version="1.1" xmlns="http://www.w3.org/2000/svg" xmlns:xlink="http://www.w3.org/1999/xlink">
    <!-- Generator: Sketch 55.2 (78181) - https://sketchapp.com -->
    <title>SAPFioriMoments</title>
    <desc>Created with Sketch.</desc>
    <defs>
        <path d="M49.9072266,48.2148438 C47.2216663,48.2148438 45.1627676,47.3518967 43.7304688,45.6259766 L45.7714844,43.5957031 C46.1438821,43.9967468 46.5162742,44.338703 46.8886719,44.621582 C47.2610696,44.904461 47.7050755,45.1389965 48.2207031,45.3251953 C48.7363307,45.5113942 49.3271451,45.6044922 49.9931641,45.6044922 C50.9957732,45.6044922 51.763832,45.448732 52.2973633,45.137207 C52.8308946,44.825682 53.0976562,44.3798857 53.0976562,43.7998047 C53.0976562,43.3629535 52.9562189,43.0084649 52.6733398,42.7363281 C52.3904608,42.4641913 52.0341818,42.2565111 51.6044922,42.1132812 C51.1748025,41.9700514 50.5804074,41.8089202 49.8212891,41.6298828 C49.5491523,41.5725909 49.3450528,41.5260418 49.2089844,41.4902344 C48.2063752,41.2467436 47.3577509,40.9674495 46.6630859,40.6523438 C45.968421,40.337238 45.3937197,39.8789093 44.9389648,39.2773438 C44.48421,38.6757782 44.2568359,37.8951871 44.2568359,36.9355469 C44.2568359,36.0117141 44.5021134,35.2275423 44.9926758,34.5830078 C45.4832381,33.9384733 46.1653602,33.4532894 47.0390625,33.1274414 C47.9127648,32.8015934 48.9189396,32.6386719 50.0576172,32.6386719 C51.2464252,32.6386719 52.2955684,32.8123355 53.2050781,33.159668 C54.1145879,33.5070004 54.930986,34.0387334 55.6542969,34.7548828 L53.8066406,36.7529297 C53.2623671,36.2444636 52.6787141,35.8505873 52.0556641,35.5712891 C51.4326141,35.2919908 50.7307982,35.1523438 49.9501953,35.1523438 C49.0192011,35.1523438 48.3496114,35.2991522 47.9414062,35.5927734 C47.5332011,35.8863947 47.3291016,36.2659482 47.3291016,36.7314453 C47.3291016,37.1539735 47.4526355,37.4887683 47.699707,37.7358398 C47.9467786,37.9829114 48.2708313,38.1762688 48.671875,38.315918 C49.0729187,38.4555671 49.6565717,38.614908 50.4228516,38.7939453 L50.6591797,38.8476562 C51.8694722,39.1269545 52.8398401,39.4116196 53.5703125,39.7016602 C54.3007849,39.9917007 54.9184545,40.4464487 55.4233398,41.065918 C55.9282252,41.6853872 56.1806641,42.5358019 56.1806641,43.6171875 C56.1806641,44.5410202 55.9568707,45.3466763 55.5092773,46.0341797 C55.061684,46.7216831 54.3706101,47.2569968 53.4360352,47.6401367 C52.5014602,48.0232767 51.3252024,48.2148438 49.9072266,48.2148438 Z M67.5673828,44.3476562 L61.5732422,44.3476562 L60.359375,48 L57.1904297,48 L62.7119141,32.8642578 L66.4501953,32.8642578 L71.9501953,48 L68.78125,48 L67.5673828,44.3476562 Z M66.7832031,41.9736328 L65.2578125,37.3974609 C65.236328,37.325846 65.0358092,36.6705791 64.65625,35.4316406 L64.5810547,35.1953125 C64.5380857,35.3528654 64.4503587,35.6518533 64.3178711,36.0922852 C64.1853835,36.532717 64.0439461,36.9677713 63.8935547,37.3974609 L62.3681641,41.9736328 L66.7832031,41.9736328 Z M73.7548828,32.8642578 L80.5546875,32.8642578 C81.8151105,32.8642578 82.866044,33.0683573 83.7075195,33.4765625 C84.5489951,33.8847677 85.1756164,34.4576786 85.5874023,35.1953125 C85.9991883,35.9329464 86.2050781,36.7994742 86.2050781,37.7949219 C86.2050781,38.7187546 86.002769,39.5673789 85.5981445,40.3408203 C85.1935201,41.1142617 84.5776409,41.7337216 83.7504883,42.1992188 C82.9233357,42.6647159 81.9010478,42.8974609 80.6835938,42.8974609 L76.9238281,42.8974609 L76.9238281,48 L73.7548828,48 L73.7548828,32.8642578 Z M80.2861328,40.2333984 C81.1956426,40.2333984 81.8777647,40.0203472 82.3325195,39.5942383 C82.7872744,39.1681294 83.0146484,38.582686 83.0146484,37.8378906 C83.0146484,37.0859337 82.7783227,36.5166035 82.3056641,36.1298828 C81.8330054,35.7431621 81.1311896,35.5498047 80.2001953,35.5498047 L76.9238281,35.5498047 L76.9238281,40.2333984 L80.2861328,40.2333984 Z M94.1435547,32.8642578 L104.638672,32.8642578 L104.638672,35.5283203 L97.3125,35.5283203 L97.3125,39.4599609 L104.402344,39.4599609 L104.402344,42.1455078 L97.3125,42.1455078 L97.3125,48 L94.1435547,48 L94.1435547,32.8642578 Z M108.516602,34.8408203 C107.986651,34.8408203 107.571291,34.6886408 107.270508,34.3842773 C106.969725,34.0799138 106.819336,33.6699245 106.819336,33.1542969 C106.819336,32.6315078 106.969725,32.2179377 107.270508,31.9135742 C107.571291,31.6092107 107.986651,31.4570312 108.516602,31.4570312 C109.025068,31.4570312 109.429686,31.6092107 109.730469,31.9135742 C110.031252,32.2179377 110.181641,32.6315078 110.181641,33.1542969 C110.181641,33.662763 110.029461,34.070962 109.725098,34.3789062 C109.420734,34.6868505 109.017906,34.8408203 108.516602,34.8408203 Z M106.991211,36.3876953 L110.009766,36.3876953 L110.009766,48 L106.991211,48 L106.991211,36.3876953 Z M118.238281,48.2148438 C117.020827,48.2148438 115.973474,47.9498724 115.096191,47.4199219 C114.218908,46.8899713 113.55469,46.1666713 113.103516,45.25 C112.652341,44.3333287 112.426758,43.3056698 112.426758,42.1669922 C112.426758,41.0569606 112.64697,40.0472051 113.087402,39.1376953 C113.527834,38.2281856 114.188472,37.5048855 115.069336,36.9677734 C115.9502,36.4306614 117.027988,36.1621094 118.302734,36.1621094 C119.641934,36.1621094 120.746578,36.428871 121.616699,36.9624023 C122.486821,37.4959337 123.125975,38.2120723 123.53418,39.1108398 C123.942385,40.0096074 124.146484,41.0283146 124.146484,42.1669922 C124.146484,43.3056698 123.922691,44.3315384 123.475098,45.2446289 C123.027504,46.1577194 122.359705,46.8810195 121.47168,47.4145508 C120.583654,47.9480821 119.505866,48.2148438 118.238281,48.2148438 Z M118.206055,45.8193359 C119.101241,45.8193359 119.788735,45.5042349 120.268555,44.8740234 C120.748375,44.243812 120.988281,43.3414772 120.988281,42.1669922 C120.988281,41.0068301 120.762698,40.1152375 120.311523,39.4921875 C119.860349,38.8691375 119.205082,38.5576172 118.345703,38.5576172 C117.457678,38.5576172 116.777346,38.8709279 116.304688,39.4975586 C115.832029,40.1241893 115.595703,41.0139916 115.595703,42.1669922 C115.595703,42.9332721 115.704914,43.5903293 115.92334,44.1381836 C116.141765,44.6860379 116.446124,45.1031887 116.836426,45.3896484 C117.226727,45.6761082 117.683266,45.8193359 118.206055,45.8193359 Z M126.541992,39.1162109 C126.541992,38.6149063 126.53304,38.0795927 126.515137,37.5102539 C126.497233,36.9409151 126.477539,36.5667327 126.456055,36.3876953 L129.334961,36.3876953 C129.363607,36.5166022 129.394043,36.8245418 129.42627,37.3115234 C129.458496,37.798505 129.474609,38.1637358 129.474609,38.4072266 L129.517578,38.4072266 C129.746746,37.862953 129.965168,37.4368505 130.172852,37.1289062 C130.380535,36.820962 130.649087,36.5792652 130.978516,36.4038086 C131.307944,36.228352 131.737628,36.140625 132.267578,36.140625 C132.460938,36.140625 132.648925,36.1585285 132.831543,36.1943359 C133.014161,36.2301434 133.148437,36.2731117 133.234375,36.3232422 L133.148438,38.9335938 C133.048177,38.9192708 132.972982,38.904948 132.922852,38.890625 C132.536131,38.8190101 132.206707,38.7832031 131.93457,38.7832031 C131.189775,38.7832031 130.607912,39.0857717 130.188965,39.690918 C129.770017,40.2960642 129.560547,41.1679631 129.560547,42.3066406 L129.560547,48 L126.541992,48 L126.541992,39.1162109 Z M136.628906,34.8408203 C136.098956,34.8408203 135.683595,34.6886408 135.382812,34.3842773 C135.08203,34.0799138 134.931641,33.6699245 134.931641,33.1542969 C134.931641,32.6315078 135.08203,32.2179377 135.382812,31.9135742 C135.683595,31.6092107 136.098956,31.4570312 136.628906,31.4570312 C137.137372,31.4570312 137.541991,31.6092107 137.842773,31.9135742 C138.143556,32.2179377 138.293945,32.6315078 138.293945,33.1542969 C138.293945,33.662763 138.141766,34.070962 137.837402,34.3789062 C137.533039,34.6868505 137.130211,34.8408203 136.628906,34.8408203 Z M135.103516,36.3876953 L138.12207,36.3876953 L138.12207,48 L135.103516,48 L135.103516,36.3876953 Z M147.704102,32.8642578 L149.498047,32.8642578 L154.256836,44.4873047 C154.392904,44.8238949 154.545084,45.2249326 154.713379,45.6904297 C154.881674,46.1559268 154.969401,46.4244788 154.976562,46.4960938 C155.041016,46.3027334 155.148437,46.0144876 155.298828,45.6313477 C155.44922,45.2482077 155.603189,44.8668639 155.760742,44.4873047 L160.412109,32.8642578 L162.163086,32.8642578 L162.163086,48 L160.927734,48 L160.927734,37.2255859 C160.927734,35.7073492 160.942057,34.7477234 160.970703,34.3466797 C160.913411,34.5328785 160.784506,34.907061 160.583984,35.4692383 C160.383463,36.0314156 160.186524,36.534503 159.993164,36.9785156 L155.567383,48 L154.385742,48 L149.874023,36.9785156 C149.723632,36.6347639 149.541017,36.1621124 149.326172,35.5605469 C149.111327,34.9589814 148.968099,34.554363 148.896484,34.3466797 L148.896484,34.6152344 C148.917969,35.667974 148.928711,36.5380825 148.928711,37.2255859 L148.928711,48 L147.704102,48 L147.704102,32.8642578 Z M170.230469,48.2148438 C169.22786,48.2148438 168.35238,47.9731469 167.604004,47.4897461 C166.855628,47.0063452 166.280926,46.3242232 165.879883,45.4433594 C165.478839,44.5624956 165.27832,43.5455787 165.27832,42.3925781 C165.27832,41.2539006 165.473468,40.2459354 165.86377,39.3686523 C166.254071,38.4913693 166.826982,37.8074569 167.58252,37.3168945 C168.338057,36.8263322 169.242182,36.5810547 170.294922,36.5810547 C171.397792,36.5810547 172.323401,36.8245418 173.071777,37.3115234 C173.820153,37.798505 174.376951,38.4770464 174.742188,39.347168 C175.107424,40.2172895 175.290039,41.2324161 175.290039,42.3925781 C175.290039,43.5455787 175.08952,44.5607052 174.688477,45.4379883 C174.287433,46.3152713 173.707361,46.9973934 172.948242,47.484375 C172.189124,47.9713566 171.283208,48.2148438 170.230469,48.2148438 Z M170.208984,47.1083984 C171.369146,47.1083984 172.285804,46.7145222 172.958984,45.9267578 C173.632165,45.1389935 173.96875,43.9609453 173.96875,42.3925781 C173.96875,40.8313724 173.648278,39.6586953 173.007324,38.8745117 C172.36637,38.0903281 171.476568,37.6982422 170.337891,37.6982422 C169.578772,37.6982422 168.918134,37.8736962 168.355957,38.2246094 C167.79378,38.5755226 167.360516,39.1000942 167.056152,39.7983398 C166.751789,40.4965855 166.599609,41.361323 166.599609,42.3925781 C166.599609,43.4238333 166.75895,44.2939418 167.077637,45.0029297 C167.396323,45.7119176 167.827797,46.2400699 168.37207,46.5874023 C168.916344,46.9347348 169.528642,47.1083984 170.208984,47.1083984 Z M178.158203,39.234375 C178.158203,38.7187474 178.152832,38.2317731 178.14209,37.7734375 C178.131348,37.3151019 178.122396,36.9928395 178.115234,36.8066406 L179.275391,36.8066406 C179.289714,36.985678 179.304036,37.3133114 179.318359,37.7895508 C179.332682,38.2657901 179.339844,38.6614568 179.339844,38.9765625 L179.382812,38.9765625 C180.141931,37.3795493 181.316398,36.5810547 182.90625,36.5810547 C183.765629,36.5810547 184.469236,36.7976866 185.01709,37.230957 C185.564944,37.6642274 185.939127,38.271155 186.139648,39.0517578 L186.182617,39.0517578 C186.562176,38.271155 187.074216,37.6642274 187.71875,37.230957 C188.363284,36.7976866 189.083004,36.5810547 189.87793,36.5810547 C191.073899,36.5810547 191.940427,36.9534468 192.477539,37.6982422 C193.014651,38.4430376 193.283203,39.4957614 193.283203,40.8564453 L193.283203,48 L192.015625,48 L192.015625,41.0498047 C192.015625,39.9326116 191.827639,39.0947294 191.45166,38.5361328 C191.075682,37.9775363 190.432947,37.6982422 189.523438,37.6982422 C188.964841,37.6982422 188.44385,37.8593734 187.960449,38.1816406 C187.477048,38.5039079 187.088543,38.9550752 186.794922,39.5351562 C186.501301,40.1152373 186.354492,40.7705042 186.354492,41.5009766 L186.354492,48 L185.097656,48 L185.097656,41.0498047 C185.097656,39.9540961 184.889976,39.1215849 184.474609,38.5522461 C184.059243,37.9829073 183.403976,37.6982422 182.508789,37.6982422 C181.950193,37.6982422 181.434573,37.8611637 180.961914,38.1870117 C180.489255,38.5128597 180.115073,38.9640271 179.839355,39.5405273 C179.563638,40.1170276 179.425781,40.7705042 179.425781,41.5009766 L179.425781,48 L178.158203,48 L178.158203,39.234375 Z M201.092773,48.2148438 C200.047195,48.2148438 199.146651,47.9803083 198.391113,47.5112305 C197.635576,47.0421526 197.057294,46.3654016 196.65625,45.480957 C196.255206,44.5965125 196.054688,43.545579 196.054688,42.328125 C196.054688,41.0390561 196.280271,39.964848 196.731445,39.1054688 C197.182619,38.2460895 197.777015,37.6105164 198.514648,37.1987305 C199.252282,36.7869446 200.057938,36.5810547 200.931641,36.5810547 C201.998703,36.5810547 202.883135,36.8281225 203.584961,37.3222656 C204.286787,37.8164087 204.800617,38.4680949 205.126465,39.2773438 C205.452313,40.0865926 205.615234,40.9674432 205.615234,41.9199219 C205.615234,42.0559903 205.597331,42.3030581 205.561523,42.6611328 L197.386719,42.6611328 C197.386719,43.4560587 197.520995,44.1901008 197.789551,44.8632812 C198.058107,45.5364617 198.471677,46.0771464 199.030273,46.4853516 C199.58887,46.8935567 200.279944,47.0976562 201.103516,47.0976562 C201.812504,47.0976562 202.430173,46.9544285 202.956543,46.6679688 C203.482913,46.381509 203.993162,45.984052 204.487305,45.4755859 L205.25,46.3886719 C204.727211,46.9114609 204.134606,47.3465152 203.472168,47.6938477 C202.80973,48.0411801 202.016606,48.2148438 201.092773,48.2148438 Z M204.304688,41.5546875 C204.233073,40.3085875 203.916181,39.3543327 203.354004,38.6918945 C202.791827,38.0294563 201.9808,37.6982422 200.920898,37.6982422 C200.319333,37.6982422 199.758954,37.8325182 199.239746,38.1010742 C198.720538,38.3696302 198.294435,38.7921521 197.961426,39.3686523 C197.628416,39.9451526 197.444011,40.6738237 197.408203,41.5546875 L204.304688,41.5546875 Z M208.504883,39.234375 C208.504883,38.7259089 208.499512,38.240725 208.48877,37.7788086 C208.478027,37.3168922 208.469076,36.9928395 208.461914,36.8066406 L209.62207,36.8066406 C209.636393,36.985678 209.650716,37.3115211 209.665039,37.7841797 C209.679362,38.2568383 209.686523,38.6542953 209.686523,38.9765625 L209.729492,38.9765625 C210.130536,38.1744752 210.637204,37.574709 211.249512,37.1772461 C211.861819,36.7797832 212.619136,36.5810547 213.521484,36.5810547 C214.789069,36.5810547 215.72363,36.9731406 216.325195,37.7573242 C216.926761,38.5415078 217.227539,39.5745379 217.227539,40.8564453 L217.227539,48 L215.949219,48 L215.949219,41.0498047 C215.949219,38.8154185 215.011077,37.6982422 213.134766,37.6982422 C212.490231,37.6982422 211.911949,37.8593734 211.399902,38.1816406 C210.887856,38.5039079 210.488608,38.9532849 210.202148,39.5297852 C209.915689,40.1062854 209.772461,40.7633427 209.772461,41.5009766 L209.772461,48 L208.504883,48 L208.504883,39.234375 Z M223.210938,48.171875 C222.394527,48.171875 221.7876,47.9659851 221.390137,47.5541992 C220.992674,47.1424133 220.793945,46.521163 220.793945,45.6904297 L220.793945,37.9130859 L219.311523,37.9130859 L219.311523,36.8066406 L220.81543,36.8066406 L220.901367,34.4111328 L222.072266,34.2822266 L222.072266,36.8066406 L224.682617,36.8066406 L224.682617,37.9130859 L222.072266,37.9130859 L222.072266,45.5292969 C222.072266,46.0592474 222.181477,46.4405913 222.399902,46.6733398 C222.618328,46.9060884 222.985349,47.0224609 223.500977,47.0224609 C223.830405,47.0224609 224.238604,46.9651698 224.725586,46.8505859 L224.854492,47.9462891 C224.274411,48.0966804 223.726565,48.171875 223.210938,48.171875 Z M230.214844,48.2148438 C229.326818,48.2148438 228.515791,48.0734064 227.781738,47.7905273 C227.047685,47.5076483 226.40137,47.1012396 225.842773,46.5712891 L226.626953,45.6044922 C227.149742,46.1057968 227.697588,46.4853503 228.270508,46.7431641 C228.843427,47.0009779 229.491533,47.1298828 230.214844,47.1298828 C231.0599,47.1298828 231.754555,46.9580095 232.298828,46.6142578 C232.843102,46.2705061 233.115234,45.7477249 233.115234,45.0458984 C233.115234,44.5947243 233.002443,44.236655 232.776855,43.9716797 C232.551268,43.7067044 232.261232,43.5008145 231.906738,43.3540039 C231.552244,43.2071933 231.034834,43.040691 230.354492,42.8544922 L229.838867,42.7148438 C229.101233,42.5143219 228.488935,42.308432 228.001953,42.097168 C227.514972,41.8859039 227.108563,41.5761739 226.782715,41.1679688 C226.456867,40.7597636 226.293945,40.229821 226.293945,39.578125 C226.293945,38.955075 226.451496,38.417971 226.766602,37.9667969 C227.081707,37.5156227 227.529294,37.1736665 228.109375,36.940918 C228.689456,36.7081694 229.369788,36.5917969 230.150391,36.5917969 C230.91667,36.5917969 231.625648,36.7207018 232.277344,36.9785156 C232.92904,37.2363294 233.487628,37.5943987 233.953125,38.0527344 L233.168945,38.9658203 C232.76074,38.5576151 232.29704,38.2443045 231.777832,38.0258789 C231.258624,37.8074533 230.716149,37.6982422 230.150391,37.6982422 C229.326819,37.6982422 228.684084,37.8593734 228.222168,38.1816406 C227.760252,38.5039079 227.529297,38.9479138 227.529297,39.5136719 C227.529297,39.9433615 227.645669,40.2871081 227.878418,40.5449219 C228.111167,40.8027357 228.415525,41.0014641 228.791504,41.1411133 C229.167482,41.2807624 229.717119,41.4472647 230.44043,41.640625 C230.476237,41.6477865 230.547851,41.66569 230.655273,41.6943359 C231.450199,41.9091808 232.094724,42.116861 232.588867,42.3173828 C233.08301,42.5179046 233.505532,42.829425 233.856445,43.2519531 C234.207359,43.6744813 234.382812,44.2366501 234.382812,44.9384766 C234.382812,45.611657 234.21273,46.19531 233.872559,46.6894531 C233.532388,47.1835962 233.048994,47.5613594 232.422363,47.8227539 C231.795733,48.0841484 231.0599,48.2148438 230.214844,48.2148438 Z" id="path-1"></path>
    </defs>
    <g id="Page-1" stroke="none" stroke-width="1" fill="none" fill-rule="evenodd">
        <g id="General-Styling" transform="translate(-43.000000, -31.000000)" fill-rule="nonzero">
            <g id="SAPFioriMoments">
                <use fill="#FFFFFF" xlink:href="#path-1"></use>
                <use fill="#525252" xlink:href="#path-1"></use>
            </g>
        </g>
    </g>
</svg>