<svg xmlns="http://www.w3.org/2000/svg" xmlns:xlink="http://www.w3.org/1999/xlink" width="128" height="128" viewBox="0 0 128 128" id="sapIllus-Spot-BeforeSearch">
    <circle class="sapIllus_ObjectFillColor" style="fill:var(--sapIllus_ObjectFillColor)" cx="48.5882" cy="45.5128" r="22.5135"/>
    <path class="sapIllus_BrandColorSecondary" style="fill:var(--sapIllus_BrandColorSecondary)" d="M78.6656,105.9967l-15.4527-37.2a27.5,27.5,0,1,0-11.9975,4.0866c.737-.0707,1.4611-.1782,2.1779-.3047l15.558,37.4534a4.82,4.82,0,0,0,6.3,2.6022l.8118-.3372A4.82,4.82,0,0,0,78.6656,105.9967ZM50.6477,66.86a21.48,21.48,0,1,1,19.33-23.4338A21.48,21.48,0,0,1,50.6477,66.86Z"/>
    <path class="sapIllus_ObjectFillColor" style="fill:var(--sapIllus_ObjectFillColor)" d="M33.6075,46.706a15.0927,15.0927,0,0,0,5.4368,10.2331"/>
    <path class="sapIllus_StrokeDetailColor" style="fill:var(--sapIllus_StrokeDetailColor)" d="M38.0352,57.2253a.5009.5009,0,0,1-.3184-.1143A15.5359,15.5359,0,0,1,32.1006,46.54a.5.5,0,0,1,.9961-.0957,14.5391,14.5391,0,0,0,5.2569,9.895.5.5,0,0,1-.3184.8858Z"/>
    <path class="sapIllus_ObjectFillColor" style="fill:var(--sapIllus_ObjectFillColor)" d="M88.0259,102.1172c-1.9249.0125-15.6884-.1289-17.1245-.0641-3.8654.1746-7.7342.3285-11.5961.54a3.0391,3.0391,0,0,1-1.5284-.2339,3.5082,3.5082,0,0,1-1.6243-2.3568,2.8539,2.8539,0,0,1,.0789-1.6046c.0808-.2156.462-.9951.7677-.9057a3.8036,3.8036,0,0,1-2.5448-2.1447,2.6342,2.6342,0,0,1-.004-1.8227c.0978-.2582.4909-.8783.8455-.8245a3.5828,3.5828,0,0,1-2.9713-2.7335,3.4062,3.4062,0,0,1,.2158-2.0064,2.9917,2.9917,0,0,1,.5579-.8905c.2164-.2246.5292-.3684.697-.6408a20.2687,20.2687,0,0,1-4.5178-.6314,2.53,2.53,0,0,1-1.3673-1.07,3.5078,3.5078,0,0,1,.3649-3.5542,4.7344,4.7344,0,0,1,3.3423-1.5372c.5071-.06,3.9244-.33,5.1377-.3859,1.3166-.0608,2.6345-.0882,3.9523-.1025,2.6333-.0284,24.1442.1044,27.3185.0868"/>
    <line class="sapIllus_ObjectFillColor" style="fill:var(--sapIllus_ObjectFillColor)" x1="63.0845" y1="86.5768" x2="53.7555" y2="86.4376"/>
    <line class="sapIllus_ObjectFillColor" style="fill:var(--sapIllus_ObjectFillColor)" x1="62.1671" y1="92.5539" x2="54.6197" y2="92.7453"/>
    <line class="sapIllus_ObjectFillColor" style="fill:var(--sapIllus_ObjectFillColor)" x1="63.7714" y1="97.3478" x2="56.7427" y2="97.5392"/>
    <path class="sapIllus_StrokeDetailColor" style="fill:var(--sapIllus_StrokeDetailColor)" d="M52.9494,72.11l.7182,1.7628s6.7981.5779,10.6644-2.8588l-1.18-2.8241-4.5645,2.4165Z"/>
    <path class="sapIllus_StrokeDetailColor" style="fill:var(--sapIllus_StrokeDetailColor)" d="M88.0257,101.6174h-.0029c-.7158.0034-3.0459-.0118-5.7754-.0313-4.6562-.0327-10.45-.0732-11.3682-.0327l-3.0849.1367c-2.84.124-5.68.2486-8.5166.4043A2.5756,2.5756,0,0,1,58,101.9123a3.0494,3.0494,0,0,1-1.3593-2.0186,2.3527,2.3527,0,0,1,.0595-1.3217,2.407,2.407,0,0,1,.3017-.5365l6.8936-.1877a.5.5,0,0,0-.0136-1h-.0137l-6.6949.1823c-.0118-.0044-.02-.0136-.0326-.0172a3.3525,3.3525,0,0,1-2.2178-1.8384,2.1394,2.1394,0,0,1-.0049-1.4727,2.8593,2.8593,0,0,1,.2771-.468l7.095-.18a.5.5,0,0,0,.4873-.5127.4838.4838,0,0,0-.5127-.4873l-6.8358.1733a.4689.4689,0,0,0-.0578-.021l-.0019-.0005a3.078,3.078,0,0,1-2.5547-2.3388A2.9072,2.9072,0,0,1,53,88.1569a2.4966,2.4966,0,0,1,.4571-.74,1.9231,1.9231,0,0,1,.2275-.1885,3.0343,3.0343,0,0,0,.33-.2887l9.1723.1368h.0078a.5.5,0,0,0,.0078-1l-9.3291-.1391h-.006l-.0126-.0049c-.4472-.0537-.9082-.0864-1.372-.1187a11.3232,11.3232,0,0,1-3.0342-.4863,2.0341,2.0341,0,0,1-1.1026-.8457,3.0115,3.0115,0,0,1,.336-3.019,4.3381,4.3381,0,0,1,2.9941-1.33c.48-.0567,3.9072-.3276,5.1026-.3828,1.1445-.0532,2.3945-.0855,3.9345-.1021,1.3877-.0151,8.0576.0152,14.5069.0445,5.7461.0258,11.3164.0493,12.8086.0424a.5.5,0,0,0-.003-1h-.0029c-1.4951.0079-7.0566-.0161-12.7979-.0424-6.455-.0293-13.1279-.0616-14.5234-.0445-1.5518.0166-2.8125.0493-3.97.1031-1.2461.0576-4.6719.3295-5.1729.3886a5.0212,5.0212,0,0,0-3.6924,1.7447,3.9981,3.9981,0,0,0-.3916,4.0883,3.0166,3.0166,0,0,0,1.6319,1.2945,12.05,12.05,0,0,0,3.3056.5444l.23.0161a3.6,3.6,0,0,0-.5625.936,3.9264,3.9264,0,0,0-.2461,2.3033,4.0445,4.0445,0,0,0,2.3819,2.8393,2.4564,2.4564,0,0,0-.2334.4414,3.1471,3.1471,0,0,0,.0029,2.1724,3.999,3.999,0,0,0,2.0566,2.1362,3.1567,3.1567,0,0,0-.3779,2.4551,4.0094,4.0094,0,0,0,1.8887,2.6953,3.2358,3.2358,0,0,0,1.4433.2959c.1211,0,.2334-.0044.336-.01,2.1543-.1181,4.3115-.2111,6.4682-.3067l.8335,1.61,11.86,1.2441-1.249-3.0865c1.6347.01,3.3821.0217,4.9948.0329,2.7344.0191,5.0781.0342,5.7891.0313a.5.5,0,0,0-.003-1Z"/>
    <path class="sapIllus_PatternShadow" style="fill:var(--sapIllus_PatternShadow)" d="M75.966,43.07A27.4861,27.4861,0,0,0,59.683,20.3352c.202.6919.4713,1.6558.7549,2.8145a36.9037,36.9037,0,0,1,1.1008,5.4928A27.3286,27.3286,0,0,1,36.9455,58.4568a31.6588,31.6588,0,0,1-7.9469-.3944,28.6394,28.6394,0,0,1-5.5733-1.6665,26.9221,26.9221,0,0,0,5.5808,8.4277,27.3253,27.3253,0,0,0,8.2547,5.7494,27.831,27.831,0,0,0,14.1121,2.3111,27.5035,27.5035,0,0,0,9.9144-2.9433A28.3733,28.3733,0,0,0,74.34,55.1794,27.99,27.99,0,0,0,75.966,43.07Z"/>
    <path class="sapIllus_AccentColor" style="fill:var(--sapIllus_AccentColor)" d="M111.8043,25.5606c-2.7032-1.0654-4.0145-3.6531-5.029-6.29a.4257.4257,0,0,0-.3907-.2761H106.38a.4253.4253,0,0,0-.3924.2663c-1.3529,3.2782-3.3643,4.9542-5.6934,6.8947l-.054.0451a.4422.4422,0,0,0-.1455.44.4318.4318,0,0,0,.3259.3237c2.0547.4459,5.2344,4.4585,5.2344,6.6054a.4329.4329,0,0,0,.365.4314.4209.4209,0,0,0,.0607.0043.4272.4272,0,0,0,.4083-.3127c.6818-2.3767,2.66-6.2863,5.3142-7.3185a.4394.4394,0,0,0,.0016-.8139Z"/>
    <path class="sapIllus_AccentColor" style="fill:var(--sapIllus_AccentColor)" d="M94.8177,41.7954c-1.4341-.5859-2.1375-2.0305-2.6847-3.5041a.4115.4115,0,0,0-.3765-.2757h-.0048a.4111.4111,0,0,0-.3782.266,9.48,9.48,0,0,1-3.1005,3.8839l-.03.0263a.4509.4509,0,0,0-.14.44.4237.4237,0,0,0,.3141.3234c1.0575.2375,2.7591,2.4639,2.7591,3.609a.4281.4281,0,0,0,.3518.4308.4039.4039,0,0,0,.0584.0043.4142.4142,0,0,0,.3934-.3124c.3677-1.3281,1.4268-3.51,2.8369-4.0784a.4451.4451,0,0,0,.0016-.8128Z"/>
</svg>