<svg xmlns="http://www.w3.org/2000/svg" xmlns:xlink="http://www.w3.org/1999/xlink" width="160" height="160" viewBox="0 0 160 160" id="sapIllus-Dialog-BeforeSearch">
    <path class="sapIllus_BrandColorSecondary" style="fill:var(--sapIllus_BrandColorSecondary)" d="M76.198,71.1268h0a5.7882,5.7882,0,0,1,5.7882,5.7882v63.8808a.6821.6821,0,0,1-.6821.6821H71.092a.6821.6821,0,0,1-.6821-.6821V76.9149a5.7881,5.7881,0,0,1,5.7881-5.7881Z" transform="translate(187.3453 175.2413) rotate(157.4423)"/>
    <rect class="sapIllus_BackgroundColor" style="fill:var(--sapIllus_BackgroundColor)" x="116.2573" y="63.2409" width="12.9972" height="82.9959" rx="3.0028" transform="translate(245.5119 209.4776) rotate(180)"/>
    <circle class="sapIllus_BrandColorSecondary" style="fill:var(--sapIllus_BrandColorSecondary)" cx="53.7648" cy="49.7362" r="30.4995"/>
    <circle class="sapIllus_ObjectFillColor" style="fill:var(--sapIllus_ObjectFillColor)" cx="53.7613" cy="49.7277" r="22.5028"/>
    <path class="sapIllus_ObjectFillColor" style="fill:var(--sapIllus_ObjectFillColor)" d="M99.86,100.5914c-14.7124.0027-29.6034.0067-31.0482.0224-1.4191.0153-2.8383.0449-4.2562.11-1.3066.06-4.9866.3515-5.5328.4156a5.0988,5.0988,0,0,0-3.5992,1.6554,3.7773,3.7773,0,0,0-.3929,3.8275,2.7244,2.7244,0,0,0,1.4724,1.1521,21.8314,21.8314,0,0,0,4.8652.68c-.1808.2933-.5176.4481-.7507.69a3.2186,3.2186,0,0,0-.6007.959,3.6661,3.6661,0,0,0-.2323,2.1606,3.7041,3.7041,0,0,0,3.2,2.9438c-.3817-.058-.805.61-.91.8878a2.836,2.836,0,0,0,.0044,1.9629,4.0957,4.0957,0,0,0,2.74,2.31c-.3292-.0962-.74.7431-.8267.9753a3.0728,3.0728,0,0,0-.0851,1.728,3.7782,3.7782,0,0,0,1.7492,2.538,3.2734,3.2734,0,0,0,1.646.2519c4.1589-.2279,8.3258-.4144,12.4924-.4538.6737-.0063,9.7949-.0015,20.0657.0049Z"/>
    <path class="sapIllus_StrokeDetailColor" style="fill:var(--sapIllus_StrokeDetailColor)" d="M58.918,79.7972l.6016,1.4876s7.8871,1.6678,11.8014-1.8116l-1.5684-3.7569A42.5723,42.5723,0,0,1,58.918,79.7972Z"/>
    <path class="sapIllus_PatternShadow" style="fill:var(--sapIllus_PatternShadow)" d="M84.1626,47.2478a30.4873,30.4873,0,0,0-2.052-8.7907,31.4981,31.4981,0,0,0-10.261-13.28,41.681,41.681,0,0,1,4.889,14.9679,33.2862,33.2862,0,0,1-.7719,14.4143A27.149,27.149,0,0,1,70.0305,65.28a26.7432,26.7432,0,0,1-2.3264,2.1138,27.1776,27.1776,0,0,1-4.0315,2.5711c-5.6469,2.871-13.929,2.9061-13.929,2.9061a46.4867,46.4867,0,0,1-20.4393-4.9091A30.4669,30.4669,0,0,0,41.0565,77.469a30.3274,30.3274,0,0,0,10.8611,2.715,34.4315,34.4315,0,0,0,4.0854-.0217c.7787-.055,1.4477-.1387,1.7408-.1757a12.096,12.096,0,0,0,1.2866-.2031c.4958-.1148.69-.2062,1.4864-.467.6726-.22,1.0274-.3168,1.3958-.4294a53.3509,53.3509,0,0,0,5.7047-2.2154A22.5632,22.5632,0,0,0,70.67,75.13a20.7551,20.7551,0,0,0,2.0239-1.4742,35.6438,35.6438,0,0,0,3.7411-3.516,34.5748,34.5748,0,0,0,5.8822-9.66A30.6069,30.6069,0,0,0,84.1626,47.2478Z"/>
    <path class="sapIllus_StrokeDetailColor" style="fill:var(--sapIllus_StrokeDetailColor)" d="M43.7457,62.4991a.5.5,0,0,1-.3184-.1143,17.0542,17.0542,0,0,1-6.1631-11.5991A.5.5,0,0,1,38.26,50.69,16.0537,16.0537,0,0,0,44.064,61.6133a.5.5,0,0,1-.3183.8858Z"/>
    <path class="sapIllus_AccentColor" style="fill:var(--sapIllus_AccentColor)" d="M125.9958,26.2635c-2.9566-1.1447-4.39-3.92-5.4981-6.748a.4346.4346,0,0,0-.3991-.2768.5343.5343,0,0,0-.4057.267c-1.4771,3.5145-3.6713,5.31-6.212,7.3881l-.06.05a.4371.4371,0,0,0,.1842.7659c2.3022.4909,5.7282,4.7359,5.7282,7.0977a.4342.4342,0,0,0,.8514.1229c.7445-2.5482,2.9057-6.7421,5.81-7.85a.4375.4375,0,0,0,.0017-.8158Z"/>
    <path class="sapIllus_BrandColorPrimary" style="fill:var(--sapIllus_BrandColorPrimary)" d="M107.977,44.4741c-1.664-.6614-2.4792-2.287-3.1125-3.9452a.4439.4439,0,0,0-.4067-.2895h-.0053a.4438.4438,0,0,0-.4084.2788,10.7,10.7,0,0,1-3.5834,4.3645l-.0357.03a.4657.4657,0,0,0-.1513.4616.4512.4512,0,0,0,.3392.3394c1.2582.2752,3.2052,2.75,3.2052,4.0746a.4529.4529,0,0,0,.38.4522.427.427,0,0,0,.0631.0045.4453.4453,0,0,0,.4249-.3278c.4267-1.4945,1.6537-3.95,3.2892-4.5906a.4616.4616,0,0,0,.0017-.8528Z"/>
    <path class="sapIllus_StrokeDetailColor" style="fill:var(--sapIllus_StrokeDetailColor)" d="M59.0679,101.5246c.5334-.0629,4.18-.3516,5.5061-.413,1.236-.0568,2.5842-.0925,4.2414-.11,1.4451-.0151,16.4324-.02,31.0445-.0221v-.7759c-14.6146.0024-29.6043.0069-31.0521.022-1.6679.0182-3.0244.053-4.2692.1114-1.337.0606-5.0213.3531-5.5616.4175a5.2625,5.2625,0,0,0-3.8693,1.8158,4.1483,4.1483,0,0,0-.4153,4.2429,3.1108,3.1108,0,0,0,1.6777,1.3261,12.8548,12.8548,0,0,0,3.5193.5767q.2886.02.5737.0417c-.0432.0379-.0849.0766-.1245.1174a3.5616,3.5616,0,0,0-.6789,1.0754,4.0777,4.0777,0,0,0-.2561,2.3908,4.2134,4.2134,0,0,0,2.5668,3.0259.4252.4252,0,0,0,.0374.0657,2.6329,2.6329,0,0,0-.2974.5254,3.2376,3.2376,0,0,0,.0037,2.2348,4.21,4.21,0,0,0,2.2947,2.2893,3.4172,3.4172,0,0,0-.38.7245,3.471,3.471,0,0,0-.1008,1.95,4.1687,4.1687,0,0,0,1.9543,2.8,3.3279,3.3279,0,0,0,1.4839.3023c.1279,0,.2485-.0045.3569-.0105,2.98-.1634,6.7736-.3514,10.6636-.4265l.3261.6971,13.4653,2.2387q-.6174-1.4814-1.2347-2.9629c2.838.0015,6.0263.0035,9.3169.0056v-.776c-10.1531-.0065-19.3936-.0118-20.0691-.0052-4.5225.0424-9.0618.2652-12.5105.4547a2.8359,2.8359,0,0,1-1.4512-.2114,3.4386,3.4386,0,0,1-1.5437-2.275,2.4115,2.4115,0,0,1,.42-2.1319l7.5366-.2053a.4381.4381,0,0,0-.0121-.876h-.012l-7.3521.2a3.7274,3.7274,0,0,1-2.4244-2.05,2.4494,2.4494,0,0,1-.0053-1.6914,1.68,1.68,0,0,1,.4306-.6006l7.647-.194a.4385.4385,0,0,0,.427-.4491.4216.4216,0,0,0-.4492-.4269l-7.8247.1985a3.3562,3.3562,0,0,1-2.5025-2.5746,3.2786,3.2786,0,0,1,.209-1.93,2.7937,2.7937,0,0,1,.5237-.8434,2.2862,2.2862,0,0,1,.2622-.2182,3.0806,3.0806,0,0,0,.3455-.3056l10.2238.1409h.0062a.438.438,0,0,0,.0058-.876l-10.8639-.15a.3372.3372,0,0,0-.0965.01c-.2786-.024-.5537-.0526-.8365-.0724a12.3,12.3,0,0,1-3.3076-.532,2.34,2.34,0,0,1-1.2678-.9791,3.39,3.39,0,0,1,.3721-3.4116A4.8032,4.8032,0,0,1,59.0679,101.5246Z"/>
    <path class="sapIllus_Layering2" style="fill:var(--sapIllus_Layering2)" d="M102.22,97.2254H129.264a0,0,0,0,1,0,0V129.24a0,0,0,0,1,0,0H102.22a2.9564,2.9564,0,0,1-2.9564-2.9564V100.1817A2.9564,2.9564,0,0,1,102.22,97.2254Z"/>
    <rect class="sapIllus_ObjectFillColor" style="fill:var(--sapIllus_ObjectFillColor)" x="107.265" y="97.2254" width="1.9956" height="32.0144"/>
</svg>