<svg xmlns="http://www.w3.org/2000/svg" xmlns:xlink="http://www.w3.org/1999/xlink" width="320" height="240" viewBox="0 0 320 240" id="sapIllus-Scene-AddBank">
    <path class="sapIllus_BackgroundColor" style="fill:var(--sapIllus_BackgroundColor)" d="M303.0326,85.8576c.0308-29.4624-26.387-48.3766-29.9284-50.61-20.4937-12.9223-46.923-12.9026-71.4061-12.9532-19.8887-.041-39.7769-.2488-59.666-.1859-18.8558.06-38.5077-.89-57.2061,1.4748C48.1721,28.22,20.0528,54.2784,20.0528,85.8583c0,17.6781,9.2709,35.1679,24.7377,47.1166,11.728,9.0606,27.4336,14.019,43.4686,16.3508,2.48,2.4522,3.6418,5.738,3.5407,9.9413-.0884,3.6757-3.0357,8.4134-7.6961,10.0725H77.76c-14.7136,0-31.3168-1.8976-40.96,11.3793a25.91,25.91,0,0,0,.3869,30.57c8.2642,11.2952,21.0059,11.8029,34.2041,11.8029,48.0429,0,95.9111.0321,144.1052.0662a194.6061,194.6061,0,0,0,22.9223-1.2759c8.5783-1.0414,16.5795-3.5386,21.8591-9.6158a22.9338,22.9338,0,0,0,4.42-7.699c4.0874-12.3491-3.029-28.853-14.0482-33.6362-7.1492-3.1033-11.9361.4656-15.8729-3.7131-3.9674-4.211-3.8211-12.84.1416-17.4387,4.5273-5.2539,12.668-3.66,18.87-4.0415C276.15,144.3625,303.0014,115.4835,303.0326,85.8576Z"/>
    <path class="sapIllus_Layering1" style="fill:var(--sapIllus_Layering1)" d="M172.1836,186.1374c-.8742,6.39-2.4177,9.7946-3.7526,11.7427a15.77,15.77,0,0,0-3.0405,7.978c-.0039.058-.0067.1059-.0085.1378h-4.5152V186.1374"/>
    <path class="sapIllus_Layering1" style="fill:var(--sapIllus_Layering1)" d="M189.9481,112.2607a20.01,20.01,0,0,1,3.0407-9.7507c4.91-7.7245,13.6077-9.1711,15.0938-9.3939a26,26,0,0,0-2.0352,6.8195c-.6885,4.5171.1225,6.57-.38,9.4824-.4542,2.6345-2.0534,6.1988-7.2651,9.9888a36.8552,36.8552,0,0,0-8.4547-7.1461Z"/>
    <path class="sapIllus_Layering1" style="fill:var(--sapIllus_Layering1)" d="M116.8712,205.9959c-.3114,0,7.7959-19.8585,7.7959-19.8585H112.356v19.8585Z"/>
    <path class="sapIllus_Layering1" style="fill:var(--sapIllus_Layering1)" d="M152.7717,54.816h-.002a.5.5,0,0,1-.498-.502,79.5691,79.5691,0,0,1,.7124-10.2646c.1787-1.3194.394-2.6534.64-3.9649a.5.5,0,1,1,.9825.1836c-.2427,1.2959-.4551,2.6133-.6314,3.916a78.4193,78.4193,0,0,0-.7036,10.1338A.5.5,0,0,1,152.7717,54.816Z"/>
    <path class="sapIllus_Layering1" style="fill:var(--sapIllus_Layering1)" d="M156.6657,49.1294l-.0229-.0009a.4991.4991,0,0,1-.4771-.5215,91.1443,91.1443,0,0,1,3.6089-21.6416.5.5,0,1,1,.959.2812,90.1625,90.1625,0,0,0-3.5688,21.4053A.5.5,0,0,1,156.6657,49.1294Z"/>
    <path class="sapIllus_Layering1" style="fill:var(--sapIllus_Layering1)" d="M114.8576,27.606a.5.5,0,0,1-.5-.4883,55.8051,55.8051,0,0,1,.32-7.4277c.1064-.957.2387-1.9209.3945-2.8643a.4927.4927,0,0,1,.5742-.4121.5.5,0,0,1,.4121.5742c-.1523.9268-.2827,1.8731-.3867,2.8116a54.728,54.728,0,0,0-.3145,7.2949.5.5,0,0,1-.4882.5117Z"/>
    <path class="sapIllus_Layering1" style="fill:var(--sapIllus_Layering1)" d="M119.4538,26.2134a.5.5,0,0,1-.499-.4814,57.0414,57.0414,0,0,1,.2764-8.125A54.67,54.67,0,0,1,120.906,8.8a.5.5,0,0,1,.9638.2676,53.7131,53.7131,0,0,0-1.6445,8.6446,56.135,56.135,0,0,0-.2715,7.9824.5.5,0,0,1-.4809.5185Z"/>
    <path class="sapIllus_Layering1" style="fill:var(--sapIllus_Layering1)" d="M128.3738,89.0142a.5.5,0,0,1-.4991-.48A67.18,67.18,0,0,1,128.12,79.43c.1114-1.165.2569-2.3437.4312-3.5039a.5.5,0,0,1,.9892.1485c-.1723,1.1425-.3154,2.3037-.4252,3.4511a66.1734,66.1734,0,0,0-.2417,8.9678.5.5,0,0,1-.4791.52Z"/>
    <path class="sapIllus_Layering1" style="fill:var(--sapIllus_Layering1)" d="M132.2678,83.3277h-.0034a.5.5,0,0,1-.4966-.5039,72.4154,72.4154,0,0,1,.6475-9.1758,70.9772,70.9772,0,0,1,2.0966-10.0039.5.5,0,1,1,.961.2754,70.0419,70.0419,0,0,0-2.0664,9.8633,71.3786,71.3786,0,0,0-.6387,9.0488A.5.5,0,0,1,132.2678,83.3277Z"/>
    <path class="sapIllus_AccentColor" style="fill:var(--sapIllus_AccentColor)" d="M264.0541,63.6138c-4.6565-1.8277-6.9048-6.2415-8.6419-10.7387a.5379.5379,0,0,0-.4934-.3473.6354.6354,0,0,0-.5019.3344c-2.3567,5.683-5.4043,8.1213-9.7842,11.1925a.5525.5525,0,0,0-.2271.5318.5435.5435,0,0,0,.3687.442c3.6536,1.1852,9.0923,8.331,9.0923,11.9469a.5362.5362,0,0,0,.5376.5479.5391.5391,0,0,0,.5156-.3932c.92-3.1922,3.8582-9.842,8.397-12.162a7.9149,7.9149,0,0,1,.7351-.3307.5519.5519,0,0,0,.0022-1.0236Z"/>
    <path class="sapIllus_AccentColor" style="fill:var(--sapIllus_AccentColor)" d="M235.059,87.9744c-2.5989-1.0266-3.8662-3.5333-4.8487-6.0893a.5473.5473,0,0,0-.5019-.3549.6693.6693,0,0,0-.51.3418c-1.3113,3.1812-3.2676,4.8132-5.5312,6.7025l-.0567.0475a.5693.5693,0,0,0-.1867.5661.5547.5547,0,0,0,.4184.4163c1.97.4283,5.02,4.281,5.02,6.3425a.5564.5564,0,0,0,.4687.5546.5338.5338,0,0,0,.0779.0055.5486.5486,0,0,0,.5242-.402c.6611-2.3038,2.5713-6.0915,5.1245-7.0848a.5648.5648,0,0,0,.002-1.0458Z"/>
    <path class="sapIllus_BrandColorSecondary" style="fill:var(--sapIllus_BrandColorSecondary)" d="M86.6162,116.5328c11.9517,3.5386,21.0831,12.6975,23.3047,23.9619,2.6665,13.5194-4.746,29.4324-14.9514,31.6707-6.2188,1.3639-14.2814-2.1733-16.0823-5.3572-.1281-.2265-.85-1.5573-1.6376-3.352,0,0-.9331-2.1262-1.5977-4.1874a42.7761,42.7761,0,0,1-1.8144-12.7708,43.5439,43.5439,0,0,1,1.9245-12.7689,40.1985,40.1985,0,0,1,4.0691-8.8622,30.1894,30.1894,0,0,1,6.7851-8.3341Z"/>
    <ellipse class="sapIllus_BrandColorSecondary" style="fill:var(--sapIllus_BrandColorSecondary)" cx="120.4246" cy="166.9931" rx="3.9554" ry="4.545" transform="translate(-29.8822 26.2925) rotate(-11.094)"/>
    <ellipse class="sapIllus_BrandColorSecondary" style="fill:var(--sapIllus_BrandColorSecondary)" cx="121.4029" cy="130.5265" rx="5.9549" ry="7.0577" transform="translate(-22.8471 25.7993) rotate(-11.094)"/>
    <ellipse class="sapIllus_BrandColorSecondary" style="fill:var(--sapIllus_BrandColorSecondary)" cx="139.918" cy="151.0662" rx="11.343" ry="14.6021" transform="translate(-26.4533 29.7458) rotate(-11.094)"/>
    <circle class="sapIllus_Layering1" style="fill:var(--sapIllus_Layering1)" cx="154.4198" cy="72.5304" r="13.0003"/>
    <circle class="sapIllus_ObjectFillColor" style="fill:var(--sapIllus_ObjectFillColor)" cx="154.3915" cy="72.5304" r="10.494"/>
    <path class="sapIllus_StrokeDetailColor" style="fill:var(--sapIllus_StrokeDetailColor)" d="M154.41,83.523a10.99,10.99,0,1,1,5.26-1.3486A11.0041,11.0041,0,0,1,154.41,83.523Zm-.0357-20.9854a9.9931,9.9931,0,1,0,8.7842,5.1954A9.9328,9.9328,0,0,0,154.3742,62.5376Z"/>
    <g id="_0q4KJU" data-name="0q4KJU">
      <path class="sapIllus_BrandColorSecondary" style="fill:var(--sapIllus_BrandColorSecondary)" d="M146.7335,70.9311a.1269.1269,0,0,1,.0248-.1079l.4811-.4646a1.8024,1.8024,0,0,1,.1329-.1285c.07-.0606.0956-.0737.1255-.0771a.2444.2444,0,0,1,.111.0262,1.5456,1.5456,0,0,1,.1483.0633l.387.1656.6614.2826c.0431-.1091.0854-.2157.1267-.3227.0088-.0227.0115-.048.0213-.07.0587-.1322.1179-.2644.1787-.3955.0213-.0458.0484-.0888.0711-.134a.03.03,0,0,0-.0051-.0276.0767.0767,0,0,0-.0355-.0168c-.0805-.01-1.1932-.5057-1.2965-.552-.049-.0219-.1346-.0607-.242-.1115a.0959.0959,0,0,1-.0707-.0741.0976.0976,0,0,1,.0223-.0782l.1066-.1189c.2243-.2254.3984-.3915.48-.4661a.2772.2772,0,0,1,.1161-.0665.2621.2621,0,0,1,.1582.0086c.7479.3172,1.2826.5449,1.3142.5621a.0551.0551,0,0,0,.0377.0072.062.062,0,0,0,.0326-.0256,5.4537,5.4537,0,0,1,.5644-.6247c.1688-.1555.3419-.3071.5211-.45a4.8082,4.8082,0,0,1,.4436-.3124c.1779-.1115.3629-.2122.5464-.3146a5.0062,5.0062,0,0,1,.7379-.321,4.878,4.878,0,0,1,.8421-.2336c.2307-.04.4615-.0834.694-.1071a5.7546,5.7546,0,0,1,.847-.02,6.2817,6.2817,0,0,1,.8283.0919c.1666.03.3316.07.4956.1127.13.0335.2579.0747.3856.1165.1021.0335.2027.0722.3033.11.0928.0351.1868.068.2766.11.1464.0678.2933.1359.4337.2148.1819.1022.3625.2082.5351.3252a5.8921,5.8921,0,0,1,.4894.3712c.17.1429.3348.2926.49.4515.15.1543.2887.3208.4255.4874a5.1986,5.1986,0,0,1,.4752.698,7.44,7.44,0,0,1,.37.6994.2541.2541,0,0,1,.01.1332.2622.2622,0,0,1-.1006.1557q-.1035.0988-.2072.1989-.2142.2064-.4235.4123a.086.086,0,0,1-.0722.0187.0848.0848,0,0,1-.0542-.0417c-.0244-.0806-.0595-.1877-.1075-.3116a4.746,4.746,0,0,0-.2478-.5309,5.0475,5.0475,0,0,0-1.7284-1.895,5.18,5.18,0,0,0-4.8642-.4388,5.14,5.14,0,0,0-1.8943,1.374l7.3485,3.1256a.1429.1429,0,0,1,.074.1007.1414.1414,0,0,1-.0326.1114q-.0724.0753-.1481.1509-.2209.2208-.4393.4164a.276.276,0,0,1-.2824.0327c-4.2439-1.8006-7.0072-2.9791-7.0689-3.0215a.0879.0879,0,0,0-.0714-.0194c-.0142.0051-.0238.0231-.0423.0593-.0319.0621-.0614.1256-.0908.189-.0491.106-.1.2111-.145.319-.0438.1061-.0805.2151-.12.3232a.23.23,0,0,0-.0059.0445l6.7057,2.8624a.1448.1448,0,0,1,.0489.2521l-.2354.2434-.3113.33a.142.142,0,0,1-.07.044.1953.1953,0,0,1-.1174-.02,1.4282,1.4282,0,0,1-.1419-.0594c-.2958-.1268-.7425-.3181-1.2871-.55-1.539-.6552-1.3858-.5869-2.2474-.9514q-1.1035-.4669-2.2071-.9339c-.1182-.05-.2361-.1009-.36-.1454a5.1314,5.1314,0,0,0,1.2719,3.9355,5.0275,5.0275,0,0,0,2.904,1.6609,5.1469,5.1469,0,0,0,1.3722.0835,5.021,5.021,0,0,0,1.4324-.3334c.0789-.0311.1442-.0592.19-.08a.155.155,0,0,1,.173-.0174c.04.0335.03.1019.0211.1669a.4394.4394,0,0,1-.0412.1332l-.2243.5635c-.02.0374-.0531.0973-.0921.1724-.0742.1428-.082.1679-.12.1989-.0233.0192-.05.034-.2174.0764-.0843.0214-.155.0373-.2056.0481a6.0237,6.0237,0,0,1-1.0825.1307c-.0593.0017-.31.0057-.6405-.0149-.19-.0118-.38-.0337-.5677-.0633-.17-.0267-.3381-.0664-.5054-.107-.1511-.0368-.3-.0823-.45-.1248a1.12,1.12,0,0,1-.1153-.04c-.2139-.0875-.4288-.1728-.6407-.2654a3.026,3.026,0,0,1-.3247-.1674c-.1611-.0949-.3185-.1959-.4762-.2964a5.1622,5.1622,0,0,1-.7487-.5906c-.135-.1263-.2632-.26-.39-.395a4.8843,4.8843,0,0,1-.5826-.753c-.1066-.1708-.2107-.3434-.3078-.52-.0733-.1332-.1357-.2726-.1992-.4109-.0477-.1036-.0953-.2078-.1324-.3152-.063-.182-.1222-.3655-.1743-.5509-.0454-.162-.0867-.3259-.116-.4915-.0359-.202-.0623-.406-.0845-.61a5.7913,5.7913,0,0,1,.0052-1.1869c.0075-.077.019-.1535.0308-.23a.0632.0632,0,0,0-.0037-.0411.0588.0588,0,0,0-.0321-.0247c-.0346-.013-.3579-.1511-.8057-.3429q-.4455-.1865-.8909-.3729A.13.13,0,0,1,146.7335,70.9311Z"/>
    </g>
    <circle class="sapIllus_Layering1" style="fill:var(--sapIllus_Layering1)" cx="115.4" cy="44.5288" r="12.9981"/>
    <circle class="sapIllus_ObjectFillColor" style="fill:var(--sapIllus_ObjectFillColor)" cx="115.4005" cy="44.5288" r="10.4931"/>
    <path class="sapIllus_StrokeDetailColor" style="fill:var(--sapIllus_StrokeDetailColor)" d="M115.3806,55.5259a10.9951,10.9951,0,1,1,5.7236-20.3945h0a10.9925,10.9925,0,0,1-3.0923,20.0752A11.0465,11.0465,0,0,1,115.3806,55.5259Zm.0381-20.9941a10.051,10.051,0,0,0-2.3921.29,9.9946,9.9946,0,1,0,7.5591,1.1651h0A9.9237,9.9237,0,0,0,115.4187,34.5318Z"/>
    <path class="sapIllus_BrandColorSecondary" style="fill:var(--sapIllus_BrandColorSecondary)" d="M119.52,41.007a2.9932,2.9932,0,0,1,1.1682.7162,3.8262,3.8262,0,0,1,.7258,1.025,3.8772,3.8772,0,0,1,.3507,1.4593,5.7311,5.7311,0,0,1-.1552,1.5785l1.28.4494a.2367.2367,0,0,1,.1449.3017l-.18.5117a.2368.2368,0,0,1-.3017.1449l-1.28-.45a4.5869,4.5869,0,0,1-1.996,2.25,3.82,3.82,0,0,1-1.4829.4443,3.69,3.69,0,0,1-1.36-.133.239.239,0,0,1-.1643-.3079l.3519-1.0025a.241.241,0,0,1,.2836-.1585,2.5427,2.5427,0,0,0,1.8345-.2189,2.7319,2.7319,0,0,0,.715-.5562,3.5751,3.5751,0,0,0,.53-.77l-4.0147-1.4093a2.9318,2.9318,0,0,0-.1568.2883c-.0477.101-.0945.1987-.14.294a3.9194,3.9194,0,0,1-.7057,1.0326,3.4389,3.4389,0,0,1-.9333.7024,2.8374,2.8374,0,0,1-1.1067.2982,3.1036,3.1036,0,0,1-1.2431-.1859,3.0373,3.0373,0,0,1-1.1132-.6878,3.4692,3.4692,0,0,1-.7585-1.0641,3.9126,3.9126,0,0,1-.373-1.4485,4.9763,4.9763,0,0,1,.1535-1.468l-1.2968-.4552a.2367.2367,0,0,1-.1449-.3016l.18-.5117a.2366.2366,0,0,1,.3016-.1449l1.3133.461a4.8992,4.8992,0,0,1,.7911-1.17,3.7884,3.7884,0,0,1,1.0956-.8218,3.8662,3.8662,0,0,1,1.3577-.4048,3.5538,3.5538,0,0,1,1.1795.09.23.23,0,0,1,.1585.3008l-.3629,1.0338a.2351.2351,0,0,1-.2768.1477,2.2787,2.2787,0,0,0-1.4895.126,2.34,2.34,0,0,0-.666.4436,2.6771,2.6771,0,0,0-.5151.7006L114.984,43.46l.24-.4723a4.7291,4.7291,0,0,1,.7624-1.1148,3.6271,3.6271,0,0,1,.9925-.7652,2.8861,2.8861,0,0,1,1.1873-.3162A3.5167,3.5167,0,0,1,119.52,41.007ZM110.8643,43.09a3.26,3.26,0,0,0-.0869.9347,2.267,2.267,0,0,0,.257.9067,1.96,1.96,0,0,0,1.1263.9148,1.5043,1.5043,0,0,0,1.2882-.0486,2.1623,2.1623,0,0,0,.8653-.9582l.2343-.456Zm8.1779-.6179a1.7117,1.7117,0,0,0-1.4548.0739,2.5656,2.5656,0,0,0-1.04,1.1659l-.1258.2526,3.899,1.3688a3.2554,3.2554,0,0,0,.0951-.9315,2.3911,2.3911,0,0,0-.2108-.8535,2.1543,2.1543,0,0,0-.4274-.6325A1.8639,1.8639,0,0,0,119.0422,42.4724Z"/>
    <path class="sapIllus_ObjectFillColor" style="fill:var(--sapIllus_ObjectFillColor)" d="M208.1149,145.0543c-.7434-21.0552-16.763-38.03-36.2512-38.03H109.7731c-19.9578,0-36.2871,17.8005-36.2871,39.5567a41.8862,41.8862,0,0,0,9.4231,26.6026c3.8869,6.35,7.7858,13.2913,11.5544,20.8288q3.0633,6.1269,5.6389,11.9839h4.5154V185.7285a120.3433,120.3433,0,0,0,39.5491.4089c.874,6.39,2.4177,9.7945,3.7524,11.7427a15.7666,15.7666,0,0,1,3.0405,7.9779c.0039.0581.0069.106.0086.1379h4.5154V186.1374h16.38c14.9382,0,27.8417-9.9737,33.3886-24.1134h2.2417a8.462,8.462,0,0,0,8.4373-8.4372V153.46A8.4592,8.4592,0,0,0,208.1149,145.0543Z"/>
    <g>
      <path class="sapIllus_StrokeDetailColor" style="fill:var(--sapIllus_StrokeDetailColor)" d="M71.8978,205.5178h-9.999a.5.5,0,0,0,0,1h9.999a.5.5,0,0,0,0-1Z"/>
      <circle class="sapIllus_StrokeDetailColor" style="fill:var(--sapIllus_StrokeDetailColor)" cx="185.9301" cy="135.0256" r="3.5"/>
      <path class="sapIllus_StrokeDetailColor" style="fill:var(--sapIllus_StrokeDetailColor)" d="M208.4637,144.5776a43.6051,43.6051,0,0,0-.9689-7.4551,3.49,3.49,0,0,0-1.597-6.5977,3.44,3.44,0,0,0-.42.0423c-5.6477-14.137-18.5361-24.0435-33.5039-24.0435H110.0717c-12.8992,0-24.2559,7.3169-30.7964,18.343a13.2372,13.2372,0,0,0-1.7115-4.1643,8.439,8.439,0,0,0-.1-5.2568,8.861,8.861,0,0,0-4.93-4.7647,1.5,1.5,0,0,0-1.2637,2.7208,6.04,6.04,0,0,1,3.3828,3.0908,4.5832,4.5832,0,0,1,.2783,1.48c-1.1894-.8711-3.6621-2.4-6.3818-1.4892a6.1357,6.1357,0,0,0-4.1279,5.6963c.0166,2.9424,2.5283,5.7842,5.27,5.9638,1.999.13,4.1972-1.1836,5.9277-3.5088q.1715-.2313.3389-.4794a16.6173,16.6173,0,0,1,.8911,5.4779,42.8964,42.8964,0,0,0-3.4546,16.9459,42.419,42.419,0,0,0,9.4668,26.8642c4.1094,6.7325,7.9785,13.7286,11.499,20.7911,1.8472,3.7066,3.6236,7.5,5.3023,11.2832H76.9a.5.5,0,0,0,0,1h59a.5.5,0,0,0,0-1H116.9877c.3095-.9347,1.1616-3.1433,2.1914-5.75h-6.8233v5.75H105.432V186.3234q3.828.66,7.7014,1.0662l-.7776-.0482q5.3731,1.324,10.7456,2.6483.392-.9664.7842-1.9329l-.1484-.0093c1.0239.0195,2.0476.03,3.07.024a120.5047,120.5047,0,0,0,17.1289-1.3623c.7324,5.0263,1.9942,8.8779,3.7529,11.4531l.0909.1318a15.4546,15.4546,0,0,1,2.81,7.2305H139.9a.5.5,0,0,0,0,1h54.9951a.5.5,0,0,0,0-1H165.424a14.63,14.63,0,0,1,1.6333-5.4014h-6.19v5.4014h-4.4721l.0168-18.998,4.7317.0037,10.6462,2.0964.3531-2.1107c14.8945-.0751,27.7075-9.9378,33.3349-23.9924h2.0171a8.9465,8.9465,0,0,0,8.9365-8.9365v-.127A8.9483,8.9483,0,0,0,208.4637,144.5776ZM73.2123,122.8449c-1.23,1.6543-2.6143,2.3584-3.3252,2.3047a3.1933,3.1933,0,0,1-2.4658-2.9863,3.1552,3.1552,0,0,1,2.0781-2.834,2.4086,2.4086,0,0,1,.77-.1221,5.9437,5.9437,0,0,1,3.26,1.4668,6.4473,6.4473,0,0,1,.64.5664A9.4869,9.4869,0,0,1,73.2123,122.8449ZM171.97,185.5207l-16.5586.0059-.0129,14.6525H150.06a19.376,19.376,0,0,0-1.457-2.4533l-.0879-.128c-1.7295-2.53-2.96-6.4091-3.6592-11.5273l-.0683-.5049-.5039.0781a119.5437,119.5437,0,0,1-17.4844,1.4278,121.4766,121.4766,0,0,1-21.7793-1.835l-.5879-.1045v14.6357H98.1449c-.9419-2.0076-1.9058-4.0054-2.89-5.9785C91.722,186.7,87.8392,179.68,83.6762,172.8674A41.46,41.46,0,0,1,74.3949,146.58c0-21.5362,16.0049-39.0567,35.6768-39.0567H171.974c14.5059,0,27.0024,9.5908,32.5264,23.2954a3.4932,3.4932,0,0,0,2.0439,6.6406,42.6226,42.6226,0,0,1,.9163,7.063H196.3353a8.9482,8.9482,0,0,0-8.9375,8.9375v.127a8.95,8.95,0,0,0,6.3545,8.5526l9.1675,3.5239C196.8112,177.4988,185.2406,185.5207,171.97,185.5207Zm43.4609-31.9336a7.9457,7.9457,0,0,1-7.9365,7.9365H196.3353a7.946,7.946,0,0,1-7.9375-7.9365v-.127a7.9463,7.9463,0,0,1,7.9375-7.9375h11.1592a7.946,7.946,0,0,1,7.9365,7.9375Z"/>
    </g>
    <path class="sapIllus_Layering1" style="fill:var(--sapIllus_Layering1)" d="M165.913,119.9787a22.9625,22.9625,0,0,1-3.9179-10.6618c-.971-10.0976,5.4784-17.1232,6.5967-18.302a29.8563,29.8563,0,0,0,2.818,7.3963c2.4289,4.4637,4.4912,5.7506,6.0075,8.6668,1.3717,2.6382,2.388,6.8574.4752,13.6619a39.2525,39.2525,0,0,0-11.98-.7612Z"/>
    <path class="sapIllus_StrokeDetailColor" style="fill:var(--sapIllus_StrokeDetailColor)" d="M144.9066,110.5158h-27.001a2.5049,2.5049,0,0,0,0,5.01h27.001a2.5049,2.5049,0,0,0,0-5.01Z"/>
    <path class="sapIllus_Layering1" style="fill:var(--sapIllus_Layering1)" d="M140.7266,114.52a12.9913,12.9913,0,1,0-18.6415,0Z"/>
    <g>
      <path class="sapIllus_ObjectFillColor" style="fill:var(--sapIllus_ObjectFillColor)" d="M126.6256,115.0354h9.553a10.5093,10.5093,0,1,0-9.553,0Z"/>
      <path class="sapIllus_StrokeDetailColor" style="fill:var(--sapIllus_StrokeDetailColor)" d="M136.295,115.5256h-9.7862l-.1045-.0536a10.9955,10.9955,0,1,1,9.9952,0Zm-9.5507-.98H136.06a10.023,10.023,0,1,0-9.3152,0Z"/>
    </g>
    <g id="AqYuLk">
      <path class="sapIllus_BrandColorSecondary" style="fill:var(--sapIllus_BrandColorSecondary)" d="M136.4761,100.3892a.2829.2829,0,0,1,.1332-.0034l.2126.0665,1.1855.37a.2935.2935,0,0,1,.07.0269.1955.1955,0,0,1,.1.0938.1829.1829,0,0,1-.0235.156.2079.2079,0,0,1-.069.0679q-2.5642,2.3333-5.089,4.7526l-.1072.1027q1.1991.3961,2.4449.7626.1711.05.3418.0995a.2155.2155,0,0,1,.1005.0908.2229.2229,0,0,1,.0145.175l-.0765.2453-.1148.3677-.076.2436a.2454.2454,0,0,1-.1248.1541.2511.2511,0,0,1-.2244-.009l-.3527-.11q-1.4772-.46-2.9516-.9212l-.3892,1.2476,2.6809.8362.6448.1951a.2942.2942,0,0,1,.16.1435.2973.2973,0,0,1,.0081.2344c-.0333.107-.0636.1962-.0868.2626-.021.06-.0168.0456-.1476.3741-.05.1249-.0608.1532-.096.1788a.329.329,0,0,1-.2906.0025l-.5591-.1743q-1.3467-.42-2.6934-.84c-.0049.013-.0133.0324-.021.0569-.13.4134-.2377.73-.3858,1.2027-.1753.559-.1972.6508-.2243.7346-.0793.245-.1485.4447-.1954.5772a.2477.2477,0,0,1-.0989.1279.2509.2509,0,0,1-.1826.0339c-.0737-.0162-.1817-.0415-.3113-.0775-.1349-.0374-.1339-.04-.2474-.0743q-.2824-.0859-.5563-.1737a.2653.2653,0,0,1-.14-.12.2784.2784,0,0,1-.0022-.2426l.1369-.4385c.1385-.4436.2077-.6653.209-.6692.2115-.6328.2731-.8813.4363-1.3976a.2889.2889,0,0,0,.0059-.0394l-2.8094-.8764-.5233-.1633a.25.25,0,0,1-.1825-.1213.2444.2444,0,0,1-.017-.1869l.1252-.4016.0993-.3181a.3242.3242,0,0,1,.3852-.1725l.447.1392,2.8548.891.3895-1.2487q-1.49-.4686-2.9875-.9321l-.3356-.1038a.2926.2926,0,0,1-.1558-.1241.4209.4209,0,0,1-.0151-.292,1.2023,1.2023,0,0,1,.05-.1846c.1067-.3341.0859-.32.1253-.4019.0586-.1208.1245-.2569.2529-.2941.0693-.02.1212-.0013.2884.0527.1374.0443.279.0764.4134.1289.1837.0718.7256.2476,2.1242.6628l-.015-.0817q-.6286-3.4242-1.4772-6.7542l-.0452-.1443a.1754.1754,0,0,1,.0437-.1937.1857.1857,0,0,1,.1693-.0348l.09.0291c.5075.1488.8908.2724,1.0786.3366a.5349.5349,0,0,1,.2241.1353.526.526,0,0,1,.1268.2375c.3745,1.9143.63,3.0658.8135,3.8061.0764.3086.2263,1.1185.4346,2.2059.0331.1725.0452.3489.0678.53.0155-.0153.0268-.0258.0374-.037.41-.4327.72-.751.7625-.7974.2078-.2288,1.1191-1.1349,3.8412-3.768l.162-.1569A.2835.2835,0,0,1,136.4761,100.3892Z"/>
    </g>
    <path class="sapIllus_PatternShadow" style="fill:var(--sapIllus_PatternShadow)" d="M97.2969,199.799q-4.42-9.0588-9.5085-18.32-.946-1.7169-1.8995-3.41a229.626,229.626,0,0,1,69.0835,7.6068c-.01,4.8193.0123,9.6838.0023,14.5031-1.7168.0036-3.3632-.0105-5.08-.007-.2216-.4225-.572-1.0611-1.05-1.813-.3929-.6182-.7014-1.0446-.7882-1.1673a22.82,22.82,0,0,1-2.3858-5.8115,33.7665,33.7665,0,0,1-1.0819-5.7966,120.6454,120.6454,0,0,1-40.3744-.4115l-.0249,14.5721Z"/>
    <g>
      <path class="sapIllus_StrokeDetailColor" style="fill:var(--sapIllus_StrokeDetailColor)" d="M197.4,149.5217a1.9988,1.9988,0,0,0-1.9971,1.997v3.9952a1.9971,1.9971,0,0,0,3.9942,0v-3.9952A1.9989,1.9989,0,0,0,197.4,149.5217Z"/>
      <path class="sapIllus_StrokeDetailColor" style="fill:var(--sapIllus_StrokeDetailColor)" d="M206.4047,149.5226a1.9989,1.9989,0,0,0-1.9971,1.9971v3.9951a1.9971,1.9971,0,1,0,3.9941,0V151.52A1.9989,1.9989,0,0,0,206.4047,149.5226Z"/>
    </g>
</svg>